<svg width="60" height="60" viewBox="0 0 60 60" fill="none" xmlns="http://www.w3.org/2000/svg">
<path d="M59.9912 54.5727L57.6211 16.8294H45.7808V13.7823C45.7808 6.18239 38.741 0 30.0875 0C21.434 0 14.3942 6.18269 14.3942 13.7823V16.8294H2.04143L0.00239594 54.7359L0.000331799 54.8016C-0.0164068 56.1657 0.600878 57.5046 1.69299 58.4733C2.78544 59.4432 4.30319 60 5.85715 60H54.1433C55.7447 60 57.2956 59.4141 58.3973 58.392C59.4986 57.3699 60.0797 55.9779 59.9912 54.5727ZM18.4873 13.7823C18.4873 8.16479 23.6909 3.5946 30.0875 3.5946C36.4837 3.5946 41.6877 8.16479 41.6877 13.7823V16.8294H18.4869L18.4873 13.7823ZM55.4243 55.9206C55.0919 56.2284 54.6253 56.4051 54.1429 56.4051H5.85681C5.38881 56.4051 4.93207 56.2377 4.60242 55.9449C4.28063 55.6599 4.09584 55.2678 4.09277 54.8658L5.94528 20.424H14.3935V24.9759C14.3935 25.9686 15.3097 26.7732 16.44 26.7732C17.5704 26.7732 18.4866 25.9686 18.4866 24.9759V20.424H41.6873V24.9759C41.6873 25.9686 42.6035 26.7732 43.7339 26.7732C44.8643 26.7732 45.7801 25.9686 45.7801 24.9759V20.424H53.7467L55.9032 54.771C55.9309 55.194 55.756 55.6131 55.4243 55.9206Z" fill="black"/>
</svg>
